<svg version="1.1" id="Layer_1" xmlns="http://www.w3.org/2000/svg" xmlns:xlink="http://www.w3.org/1999/xlink" x="0px" y="0px"
	 width="100%" viewBox="0 0 512 512" enable-background="new 0 0 512 512" xml:space="preserve">
<path fill="#000000" opacity="1.000000" stroke="none" 
	d="
M287.000000,513.000000 
	C191.356552,513.000000 96.213104,513.000000 1.034826,513.000000 
	C1.034826,342.398193 1.034826,171.796371 1.034826,1.097280 
	C171.560135,1.097280 342.120331,1.097280 512.840271,1.097280 
	C512.840271,171.666550 512.840271,342.333252 512.840271,513.000000 
	C437.796356,513.000000 362.648163,513.000000 287.000000,513.000000 
M181.652512,465.000061 
	C227.149521,465.000061 272.649109,464.716797 318.142303,465.133759 
	C337.432007,465.310547 355.982361,462.618988 373.894012,455.557068 
	C390.782043,448.898804 405.951508,439.421539 419.309692,427.146515 
	C434.259552,413.408905 445.675476,397.023468 453.714050,378.468140 
	C460.423553,362.980621 464.905151,346.755341 464.953583,329.710052 
	C465.087616,282.546692 465.156342,235.381775 464.864258,188.219864 
	C464.807800,179.100357 463.782318,169.821686 461.850250,160.909882 
	C456.037506,134.098022 443.024048,111.015022 423.879761,91.378502 
	C410.548981,77.704948 394.912842,67.361465 377.425323,59.899086 
	C361.377014,53.050854 344.650208,48.973152 327.054382,48.987358 
	C280.723999,49.024761 234.392532,48.840862 188.063980,49.136021 
	C178.943069,49.194130 169.651474,50.185497 160.752502,52.160713 
	C133.998306,58.099072 110.857552,70.985611 91.254318,90.216423 
	C77.617867,103.593811 67.285126,119.211113 59.802650,136.683319 
	C52.928337,152.735382 48.981720,169.495377 48.991364,187.078888 
	C49.016869,233.575958 48.847076,280.074005 49.135326,326.569336 
	C49.189789,335.354736 50.296932,344.278473 52.127201,352.881226 
	C57.916866,380.094025 71.184837,403.370514 90.663528,423.185211 
	C103.936752,436.687378 119.520813,446.783661 136.784500,454.270630 
	C150.767532,460.334869 165.504669,463.683014 181.652512,465.000061 
z"/>
<path fill="#5233FF" opacity="1.000000" stroke="none" 
	d="
M181.172974,465.000092 
	C165.504669,463.683014 150.767532,460.334869 136.784500,454.270630 
	C119.520813,446.783661 103.936752,436.687378 90.663528,423.185211 
	C71.184837,403.370514 57.916866,380.094025 52.127201,352.881226 
	C50.296932,344.278473 49.189789,335.354736 49.135326,326.569336 
	C48.847076,280.074005 49.016869,233.575958 48.991364,187.078888 
	C48.981720,169.495377 52.928337,152.735382 59.802650,136.683319 
	C67.285126,119.211113 77.617867,103.593811 91.254318,90.216423 
	C110.857552,70.985611 133.998306,58.099072 160.752502,52.160713 
	C169.651474,50.185497 178.943069,49.194130 188.063980,49.136021 
	C234.392532,48.840862 280.723999,49.024761 327.054382,48.987358 
	C344.650208,48.973152 361.377014,53.050854 377.425323,59.899086 
	C394.912842,67.361465 410.548981,77.704948 423.879761,91.378502 
	C443.024048,111.015022 456.037506,134.098022 461.850250,160.909882 
	C463.782318,169.821686 464.807800,179.100357 464.864258,188.219864 
	C465.156342,235.381775 465.087616,282.546692 464.953583,329.710052 
	C464.905151,346.755341 460.423553,362.980621 453.714050,378.468140 
	C445.675476,397.023468 434.259552,413.408905 419.309692,427.146515 
	C405.951508,439.421539 390.782043,448.898804 373.894012,455.557068 
	C355.982361,462.618988 337.432007,465.310547 318.142303,465.133759 
	C272.649109,464.716797 227.149521,465.000061 181.172974,465.000092 
M334.128265,312.429565 
	C335.085510,308.357452 336.675781,304.315308 336.869995,300.207123 
	C337.291595,291.288422 337.000000,282.335999 337.000000,273.314026 
	C347.922607,273.314026 358.305450,273.314026 369.000000,273.314026 
	C369.000000,280.426239 368.878052,287.231598 369.042542,294.029968 
	C369.153595,298.619629 369.502136,303.219299 370.045288,307.778687 
	C370.707275,313.335693 376.238068,319.064484 381.449860,319.975189 
	C388.314941,321.174866 395.295563,318.536987 397.891388,312.768890 
	C399.642822,308.877106 400.825592,304.371429 400.867371,300.126648 
	C401.129547,273.484161 401.046967,246.837616 400.955078,220.192856 
	C400.939270,215.606552 400.524597,210.998383 399.955658,206.442581 
	C399.049988,199.190308 392.748047,194.490967 385.284119,193.877274 
	C377.824158,193.263916 370.432281,200.069107 370.062744,206.397507 
	C369.494446,216.130524 369.325012,225.887085 369.008026,235.634338 
	C368.951416,237.374680 368.999969,239.118423 368.999969,240.733673 
	C357.937195,240.733673 347.671051,240.733673 337.493530,240.733673 
	C337.285553,240.177094 337.080139,239.881714 337.078339,239.585083 
	C337.038574,233.091431 337.139435,226.594360 336.959961,220.104965 
	C336.832977,215.514038 336.560425,210.902924 335.951324,206.354599 
	C334.676697,196.836563 323.658569,191.012329 314.949127,194.986847 
	C307.016785,198.606750 305.114807,205.624756 305.069763,213.241547 
	C304.897400,242.383591 304.947510,271.527527 305.075043,300.670013 
	C305.088989,303.858002 305.800415,307.148590 306.768738,310.207855 
	C310.374695,321.600128 326.950531,324.177155 334.128265,312.429565 
M175.994720,205.994415 
	C174.139923,199.207199 170.104828,194.506042 162.812286,194.069031 
	C152.245697,193.435822 141.580124,192.443008 131.079208,193.232361 
	C117.836807,194.227798 113.683136,200.050858 113.134842,212.647141 
	C112.541199,226.285370 112.668625,239.980362 113.117477,253.629684 
	C113.416252,262.715027 116.444328,270.949158 128.070511,272.061188 
	C133.592438,272.589355 139.123184,273.025085 144.655014,273.503143 
	C144.655014,278.645416 144.655014,283.701721 144.655014,289.000000 
	C141.329758,289.000000 138.340286,288.870026 135.367462,289.036835 
	C132.438324,289.201233 129.517670,289.606171 126.608009,290.011292 
	C119.241943,291.036926 114.024727,297.096191 113.999420,304.574524 
	C113.971268,312.897705 118.848396,319.299011 126.758972,319.889740 
	C137.310867,320.677765 147.974487,321.469116 158.495209,320.789642 
	C171.244293,319.966217 176.091766,314.998688 176.814438,302.273682 
	C177.616257,288.155212 177.387848,273.941376 176.852509,259.797638 
	C176.530533,251.291199 173.705505,243.065231 161.851791,241.937729 
	C156.336136,241.413071 150.812424,240.973206 145.371201,240.501740 
	C145.371201,235.298889 145.371201,230.239685 145.371201,224.999252 
	C149.729141,224.999252 153.730240,225.195526 157.706055,224.961777 
	C168.802536,224.309402 177.229385,218.852020 175.994720,205.994415 
M273.000000,299.326965 
	C272.999969,286.665253 273.144043,274.001404 272.954285,261.342529 
	C272.802948,251.246735 268.742462,242.400223 257.440094,241.791382 
	C252.064957,241.501831 246.703156,240.964752 241.349091,240.540878 
	C241.349091,235.344299 241.349091,230.288269 241.349091,225.000000 
	C244.679092,225.000000 247.669037,225.129944 250.642334,224.963181 
	C253.571991,224.798843 256.478973,224.266571 259.406158,224.014664 
	C265.906921,223.455139 272.287262,216.049881 272.245117,208.920044 
	C272.204254,202.011627 266.000519,194.327759 259.247467,194.032593 
	C248.670532,193.570267 238.031494,192.529633 227.514374,193.210678 
	C214.763840,194.036331 209.918839,198.966843 209.187531,211.707077 
	C208.377335,225.821625 208.605148,240.033768 209.148071,254.173950 
	C209.481033,262.846161 212.367081,270.907898 224.111221,272.062653 
	C229.627609,272.605042 235.156036,273.025330 240.643036,273.497864 
	C240.643036,278.673737 240.643036,283.727783 240.643036,288.499359 
	C234.202164,289.021423 228.117737,289.332458 222.082352,290.053925 
	C215.782532,290.807007 209.712540,297.982483 209.760757,305.101654 
	C209.805466,311.705048 215.538452,319.481567 222.277542,319.906097 
	C233.006317,320.581909 243.771286,320.799774 254.523834,320.899261 
	C257.187531,320.923889 259.969269,320.033234 262.512604,319.074738 
	C271.217133,315.794342 272.558655,308.252991 273.000000,299.326965 
z"/>
<path fill="#000000" opacity="1.000000" stroke="none" 
	d="
M334.044739,312.805695 
	C326.950531,324.177155 310.374695,321.600128 306.768738,310.207855 
	C305.800415,307.148590 305.088989,303.858002 305.075043,300.670013 
	C304.947510,271.527527 304.897400,242.383591 305.069763,213.241547 
	C305.114807,205.624756 307.016785,198.606750 314.949127,194.986847 
	C323.658569,191.012329 334.676697,196.836563 335.951324,206.354599 
	C336.560425,210.902924 336.832977,215.514038 336.959961,220.104965 
	C337.139435,226.594360 337.038574,233.091431 337.078339,239.585083 
	C337.080139,239.881714 337.285553,240.177094 337.493530,240.733673 
	C347.671051,240.733673 357.937195,240.733673 368.999969,240.733673 
	C368.999969,239.118423 368.951416,237.374680 369.008026,235.634338 
	C369.325012,225.887085 369.494446,216.130524 370.062744,206.397507 
	C370.432281,200.069107 377.824158,193.263916 385.284119,193.877274 
	C392.748047,194.490967 399.049988,199.190308 399.955658,206.442581 
	C400.524597,210.998383 400.939270,215.606552 400.955078,220.192856 
	C401.046967,246.837616 401.129547,273.484161 400.867371,300.126648 
	C400.825592,304.371429 399.642822,308.877106 397.891388,312.768890 
	C395.295563,318.536987 388.314941,321.174866 381.449860,319.975189 
	C376.238068,319.064484 370.707275,313.335693 370.045288,307.778687 
	C369.502136,303.219299 369.153595,298.619629 369.042542,294.029968 
	C368.878052,287.231598 369.000000,280.426239 369.000000,273.314026 
	C358.305450,273.314026 347.922607,273.314026 337.000000,273.314026 
	C337.000000,282.335999 337.291595,291.288422 336.869995,300.207123 
	C336.675781,304.315308 335.085510,308.357452 334.044739,312.805695 
z"/>
<path fill="#000000" opacity="1.000000" stroke="none" 
	d="
M175.997223,206.422729 
	C177.229385,218.852020 168.802536,224.309402 157.706055,224.961777 
	C153.730240,225.195526 149.729141,224.999252 145.371201,224.999252 
	C145.371201,230.239685 145.371201,235.298889 145.371201,240.501740 
	C150.812424,240.973206 156.336136,241.413071 161.851791,241.937729 
	C173.705505,243.065231 176.530533,251.291199 176.852509,259.797638 
	C177.387848,273.941376 177.616257,288.155212 176.814438,302.273682 
	C176.091766,314.998688 171.244293,319.966217 158.495209,320.789642 
	C147.974487,321.469116 137.310867,320.677765 126.758972,319.889740 
	C118.848396,319.299011 113.971268,312.897705 113.999420,304.574524 
	C114.024727,297.096191 119.241943,291.036926 126.608009,290.011292 
	C129.517670,289.606171 132.438324,289.201233 135.367462,289.036835 
	C138.340286,288.870026 141.329758,289.000000 144.655014,289.000000 
	C144.655014,283.701721 144.655014,278.645416 144.655014,273.503143 
	C139.123184,273.025085 133.592438,272.589355 128.070511,272.061188 
	C116.444328,270.949158 113.416252,262.715027 113.117477,253.629684 
	C112.668625,239.980362 112.541199,226.285370 113.134842,212.647141 
	C113.683136,200.050858 117.836807,194.227798 131.079208,193.232361 
	C141.580124,192.443008 152.245697,193.435822 162.812286,194.069031 
	C170.104828,194.506042 174.139923,199.207199 175.997223,206.422729 
z"/>
<path fill="#000000" opacity="1.000000" stroke="none" 
	d="
M273.000000,299.802124 
	C272.558655,308.252991 271.217133,315.794342 262.512604,319.074738 
	C259.969269,320.033234 257.187531,320.923889 254.523834,320.899261 
	C243.771286,320.799774 233.006317,320.581909 222.277542,319.906097 
	C215.538452,319.481567 209.805466,311.705048 209.760757,305.101654 
	C209.712540,297.982483 215.782532,290.807007 222.082352,290.053925 
	C228.117737,289.332458 234.202164,289.021423 240.643036,288.499359 
	C240.643036,283.727783 240.643036,278.673737 240.643036,273.497864 
	C235.156036,273.025330 229.627609,272.605042 224.111221,272.062653 
	C212.367081,270.907898 209.481033,262.846161 209.148071,254.173950 
	C208.605148,240.033768 208.377335,225.821625 209.187531,211.707077 
	C209.918839,198.966843 214.763840,194.036331 227.514374,193.210678 
	C238.031494,192.529633 248.670532,193.570267 259.247467,194.032593 
	C266.000519,194.327759 272.204254,202.011627 272.245117,208.920044 
	C272.287262,216.049881 265.906921,223.455139 259.406158,224.014664 
	C256.478973,224.266571 253.571991,224.798843 250.642334,224.963181 
	C247.669037,225.129944 244.679092,225.000000 241.349091,225.000000 
	C241.349091,230.288269 241.349091,235.344299 241.349091,240.540878 
	C246.703156,240.964752 252.064957,241.501831 257.440094,241.791382 
	C268.742462,242.400223 272.802948,251.246735 272.954285,261.342529 
	C273.144043,274.001404 272.999969,286.665253 273.000000,299.802124 
z"/>
</svg>